<svg width="18" height="16" viewBox="0 0 18 16" fill="none" xmlns="http://www.w3.org/2000/svg">
<path d="M9.96964 15.2803C9.82903 15.1396 9.75005 14.9489 9.75005 14.75C9.75005 14.5511 9.82903 14.3603 9.96964 14.2197L15.4394 8.74999H0.75C0.551088 8.74999 0.360322 8.67097 0.21967 8.53032C0.0790178 8.38967 0 8.1989 0 7.99999C0 7.80107 0.0790178 7.61031 0.21967 7.46966C0.360322 7.32901 0.551088 7.24999 0.75 7.24999H15.4394L9.96964 1.78031C9.89999 1.71066 9.84475 1.62797 9.80706 1.53698C9.76937 1.44598 9.74998 1.34845 9.74998 1.24995C9.74999 1.15146 9.76939 1.05393 9.80709 0.962938C9.84478 0.871943 9.90003 0.789264 9.96968 0.719622C10.0393 0.649979 10.122 0.594737 10.213 0.557049C10.304 0.519361 10.4015 0.499965 10.5 0.499969C10.5985 0.499974 10.6961 0.519378 10.787 0.557074C10.878 0.59477 10.9607 0.650019 11.0304 0.719668L17.7804 7.46967C17.7828 7.47209 17.7848 7.47479 17.7872 7.47727C17.802 7.49246 17.8164 7.50807 17.8299 7.52446C17.8374 7.53362 17.844 7.54332 17.851 7.55275C17.8586 7.56291 17.8665 7.57289 17.8736 7.58347C17.8809 7.59436 17.8873 7.60572 17.8939 7.61693C17.8998 7.62673 17.9059 7.63629 17.9114 7.64641C17.9174 7.65767 17.9225 7.6693 17.9279 7.68079C17.933 7.6915 17.9383 7.70203 17.9429 7.71297C17.9475 7.72405 17.9512 7.7354 17.9552 7.74666C17.9594 7.75847 17.964 7.77019 17.9676 7.78227C17.971 7.79349 17.9735 7.80489 17.9764 7.81624C17.9795 7.8286 17.983 7.84087 17.9855 7.85346C17.9881 7.86655 17.9896 7.87974 17.9915 7.89287C17.9931 7.90395 17.9952 7.9148 17.9963 7.92597C17.9987 7.95059 18 7.97527 18 7.99999C18 8.02471 17.9987 8.04938 17.9963 8.07401C17.9952 8.08518 17.9931 8.09603 17.9915 8.1071C17.9896 8.12024 17.9881 8.13342 17.9855 8.14651C17.983 8.1591 17.9795 8.17137 17.9764 8.18373C17.9735 8.19509 17.971 8.20648 17.9676 8.2177C17.964 8.22978 17.9594 8.2415 17.9552 8.25331C17.9512 8.26458 17.9475 8.27593 17.9429 8.28701C17.9383 8.29795 17.933 8.30847 17.9279 8.31919C17.9225 8.33068 17.9174 8.3423 17.9114 8.35356C17.9059 8.36368 17.8998 8.37325 17.8939 8.38304C17.8873 8.39426 17.8809 8.40561 17.8736 8.41651C17.8665 8.42708 17.8586 8.43706 17.851 8.44722C17.844 8.45665 17.8374 8.46636 17.8299 8.47551C17.8162 8.49222 17.8016 8.5081 17.7865 8.52358C17.7843 8.52573 17.7825 8.52816 17.7804 8.53031L11.0304 15.2803C10.9607 15.35 10.878 15.4052 10.787 15.4429C10.696 15.4806 10.5985 15.5 10.5 15.5C10.4015 15.5 10.304 15.4806 10.213 15.4429C10.122 15.4052 10.0393 15.35 9.96964 15.2803Z" fill="#19242F"/>
</svg>
