<svg width="105" height="86" viewBox="0 0 105 86" fill="none" xmlns="http://www.w3.org/2000/svg">
<path d="M13.685 41.5266C14.0843 41.9266 14.5591 42.2433 15.0818 42.4583C15.6045 42.6733 16.1647 42.7823 16.7299 42.7791C17.2951 42.7759 17.854 42.6604 18.3742 42.4395C18.8944 42.2185 19.3656 41.8965 19.7603 41.492L21.537 39.672V77.4716C21.537 82.0736 25.2636 85.8003 29.87 85.8003H74.174C78.776 85.8003 82.507 82.0736 82.507 77.4716V39.6763L84.327 41.4963C85.107 42.2763 86.2337 42.7529 87.3603 42.7529C88.5303 42.7529 89.6136 42.2763 90.437 41.4963L102.744 29.1419C104.434 27.4519 104.434 24.6786 102.744 22.9886L81.2503 1.45195C80.427 0.671946 79.3436 0.19528 78.1736 0.19528H68.9306C68.3242 0.1842 67.7313 0.375402 67.2456 0.738707C66.7599 1.10201 66.409 1.61673 66.2483 2.20161C65.4512 5.37757 63.6167 8.19655 61.0356 10.2116C58.4546 12.2267 55.2748 13.3225 52.0003 13.3253C48.7327 13.3151 45.5618 12.2157 42.9891 10.201C40.4164 8.18639 38.5889 5.37149 37.7957 2.20161C37.6335 1.61792 37.2821 1.1046 36.7966 0.742245C36.3111 0.379893 35.719 0.189027 35.1133 0.199613H25.8703C24.7326 0.199695 23.6414 0.65173 22.837 1.45628L1.30031 22.9929C0.888856 23.3928 0.561775 23.8711 0.338427 24.3995C0.115079 24.928 0 25.4959 0 26.0696C0 26.6433 0.115079 27.2112 0.338427 27.7397C0.561775 28.2682 0.888856 28.7465 1.30031 29.1463L13.685 41.5266Z" fill="#FC8B23"/>
</svg>
