<svg width="54" height="48" viewBox="0 0 54 48" fill="none" xmlns="http://www.w3.org/2000/svg">
<path d="M52.4869 39.0544L31.8692 3.42944C31.3746 2.57627 30.6645 1.86805 29.81 1.37573C28.9555 0.883408 27.9866 0.624268 27.0004 0.624268C26.0143 0.624268 25.0454 0.883408 24.1909 1.37573C23.3364 1.86805 22.6263 2.57627 22.1317 3.42944V3.43127L1.51399 39.0544C1.01898 39.9093 0.757856 40.8795 0.7569 41.8674C0.755944 42.8553 1.01519 43.826 1.50854 44.6818C2.0019 45.5377 2.71197 46.2485 3.5673 46.7428C4.42263 47.2371 5.39306 47.4973 6.38093 47.4974H47.6199C48.6078 47.4973 49.5782 47.2371 50.4336 46.7428C51.2889 46.2485 51.999 45.5377 52.4923 44.6818C52.9857 43.826 53.2449 42.8553 53.244 41.8674C53.243 40.8795 52.9819 39.9093 52.4869 39.0544ZM25.1236 19.3743C25.1236 18.877 25.3212 18.4001 25.6728 18.0484C26.0244 17.6968 26.5013 17.4993 26.9986 17.4993C27.4959 17.4993 27.9728 17.6968 28.3244 18.0484C28.6761 18.4001 28.8736 18.877 28.8736 19.3743V28.7493C28.8736 29.2465 28.6761 29.7235 28.3244 30.0751C27.9728 30.4267 27.4959 30.6243 26.9986 30.6243C26.5013 30.6243 26.0244 30.4267 25.6728 30.0751C25.3212 29.7235 25.1236 29.2465 25.1236 28.7493V19.3743ZM27 39.9999C26.4437 39.9999 25.9 39.835 25.4374 39.5259C24.9749 39.2169 24.6144 38.7777 24.4016 38.2637C24.1887 37.7498 24.133 37.1843 24.2415 36.6387C24.35 36.0932 24.6179 35.592 25.0112 35.1987C25.4046 34.8054 25.9057 34.5375 26.4513 34.429C26.9969 34.3205 27.5624 34.3762 28.0763 34.589C28.5902 34.8019 29.0294 35.1624 29.3385 35.6249C29.6475 36.0874 29.8125 36.6312 29.8125 37.1874C29.8124 37.9333 29.5161 38.6487 28.9887 39.1761C28.4612 39.7036 27.7459 39.9999 27 39.9999Z" fill="#DBC08D"/>
</svg>
