<svg width="105" height="86" viewBox="0 0 105 86" fill="none" xmlns="http://www.w3.org/2000/svg">
<path d="M14.0388 41.1733L14.0385 41.173L1.65381 28.7927L1.65384 28.7926L1.64876 28.7877C1.28526 28.4345 0.996301 28.0119 0.798983 27.545C0.601666 27.0782 0.5 26.5765 0.5 26.0696C0.5 25.5628 0.601666 25.0611 0.798983 24.5942L0.339508 24.4L0.798983 24.5942C0.9963 24.1273 1.28526 23.7048 1.64876 23.3515L1.6488 23.3516L1.65387 23.3465L23.1905 1.80983L23.1906 1.80981C23.9013 1.09904 24.8652 0.699695 25.8703 0.699613C25.8703 0.699613 25.8703 0.699613 25.8703 0.699613H35.1133V0.699689L35.1221 0.699537C35.617 0.690887 36.1008 0.84685 36.4975 1.14294C36.8926 1.43782 37.179 1.85506 37.3123 2.3296C38.1334 5.60467 40.0224 8.51288 42.6808 10.5947C45.341 12.6779 48.6199 13.8147 51.9988 13.8253L52.0007 13.8253C55.3866 13.8224 58.6745 12.6893 61.3433 10.6057C64.0106 8.52334 65.9068 5.61067 66.7318 2.32904C66.8637 1.85335 67.1497 1.43481 67.5451 1.1391C67.9418 0.84233 68.4261 0.686146 68.9215 0.695197V0.69528H68.9306H78.1736C79.2024 0.69528 80.1634 1.11316 80.9014 1.81019L102.39 23.3418L102.39 23.3422C103.885 24.8369 103.885 27.2937 102.39 28.7884L102.389 28.7891L90.088 41.1381C89.3499 41.8351 88.389 42.2529 87.3603 42.2529C86.3678 42.2529 85.3678 41.83 84.6805 41.1427L82.8605 39.3227L82.007 38.4692V39.6763V77.4716C82.007 81.7971 78.5002 85.3003 74.174 85.3003H29.87C25.5396 85.3003 22.037 81.7973 22.037 77.4716V39.672V38.444L21.1792 39.3227L19.4025 41.1427L19.4025 41.1427C19.054 41.4999 18.638 41.7842 18.1787 41.9793C17.7195 42.1743 17.226 42.2763 16.727 42.2791C16.2281 42.282 15.7335 42.1857 15.272 41.9959C14.8105 41.806 14.3914 41.5265 14.0388 41.1733Z" fill="white" stroke="#19242F"/>
</svg>
